<svg xmlns="http://www.w3.org/2000/svg" viewBox="0 0 198 195"><defs><clipPath id="a"><path d="M0 0h198v195H0z"/></clipPath></defs><g clip-path="url(#a)"><path d="M35.063 0h127.875A35.241 35.241 0 01198 35.417v124.166A35.241 35.241 0 01162.938 195H35.063A35.241 35.241 0 010 159.583V35.417A35.241 35.241 0 0135.063 0z" fill="#001e36"/><path d="M44.584 136.3V51.426c0-.62.266-.93.8-.93l4.656-.066 6.3-.133 7.173-.133 7.5-.066a49.91 49.91 0 0117 2.524 29.5 29.5 0 0111.094 6.769 25.98 25.98 0 016.043 9.364 31.06 31.06 0 011.86 10.692q0 10.628-4.915 17.533a27.77 27.77 0 01-13.282 10.033c-5.58 2.082-11.778 2.788-18.6 2.788q-2.923 0-4.118-.066-1.195-.066-3.586-.066v26.5a1.057 1.057 0 01-1.2 1.2H45.513c-.62-.006-.93-.36-.93-1.068zm17.94-69.866v27.683q1.725.134 3.188.133h4.383a31.15 31.15 0 009.5-1.516 14.32 14.32 0 006.774-4.383q2.6-3.054 2.6-8.5a13.43 13.43 0 00-1.926-7.306 12.386 12.386 0 00-5.778-4.715 24.62 24.62 0 00-9.7-1.66q-3.188 0-5.645.066-2.457.066-3.387.2zm95.854 22.65a31.12 31.12 0 00-7.9-2.79 41.97 41.97 0 00-9.231-1.063 17.18 17.18 0 00-4.981.6 4.532 4.532 0 00-2.6 1.66 4.185 4.185 0 00-.664 2.258c.025.777.306 1.524.8 2.125a9.04 9.04 0 002.789 2.192 55.446 55.446 0 005.844 2.723 57.843 57.843 0 0112.685 6.043 19.29 19.29 0 016.509 6.84 18.24 18.24 0 011.926 8.5 19.09 19.09 0 01-3.188 10.958 20.97 20.97 0 01-9.232 7.372 37.17 37.17 0 01-14.943 2.657 54.04 54.04 0 01-11.224-1.063 35.81 35.81 0 01-8.435-2.657 1.72 1.72 0 01-.93-1.594V119.5a.78.78 0 01.332-.731.644.644 0 01.73.066 35.48 35.48 0 0010.228 4.05 42.15 42.15 0 009.7 1.262q4.648 0 6.84-1.2a3.756 3.756 0 002.192-3.453 4.39 4.39 0 00-1.992-3.32q-1.992-1.594-8.1-3.852a48.843 48.843 0 01-11.755-5.977 20.27 20.27 0 01-6.243-6.973 18.288 18.288 0 01-1.926-8.434 19.04 19.04 0 012.789-9.962 20.27 20.27 0 018.634-7.571q5.843-2.92 14.6-2.922a64.68 64.68 0 0110.228.731 26.81 26.81 0 017.12 1.926 1.21 1.21 0 01.8.731 3.67 3.67 0 01.133 1v13.415a.89.89 0 01-.4.8c-.36.18-.783.18-1.143 0z" fill="#31a8ff"/></g></svg>