<svg xmlns="http://www.w3.org/2000/svg" viewBox="0 0 198 195"><defs><clipPath id="a"><path d="M0 0h198v195H0z"/></clipPath></defs><g><g data-name="Layer 2" clip-path="url(#a)"><g data-name="UI/UX Surface"><g data-name="Outline no shadow"><path data-name="Path 178" d="M35.063 0h127.875A35.241 35.241 0 01198 35.417v124.166A35.241 35.241 0 01162.938 195H35.063A35.241 35.241 0 010 159.583V35.417A35.241 35.241 0 0135.063 0z" fill="#470137"/></g></g><g fill="#ff61f6" data-name="Outlined Mnemonics &amp; Logos"><path data-name="Path 130" d="M104.085 51.614l-24.7 40.777 26.432 43.3a1.363 1.363 0 01.133 1c-.089.311-.4.115-.93.2H86.156c-1.329 0-2.258-.047-2.79-.933q-2.659-5.18-5.313-10.294t-5.645-10.427q-2.989-5.311-5.911-10.759h-.132q-2.659 5.314-5.512 10.626t-5.645 10.558q-2.789 5.248-5.711 10.427c-.355.8-.976.879-1.86.879h-18.2c-.353 0-.552.14-.6-.215a1.334 1.334 0 01.2-.93l25.635-42.106-24.967-42.236q-.4-.529-.133-.863a.967.967 0 01.8-.332h18.726a2.773 2.773 0 011.2.2 2.406 2.406 0 01.8.731q2.391 5.314 5.313 10.626t5.911 10.493q2.989 5.18 5.512 10.493h.133q2.655-5.445 5.379-10.626t5.578-10.427q2.855-5.245 5.512-10.427a2.045 2.045 0 01.531-.863 1.927 1.927 0 011.063-.2h17.4a.761.761 0 01.664 1.328z"/><path data-name="Path 131" d="M142.207 138.614a41.153 41.153 0 01-17.732-3.719 28.192 28.192 0 01-12.419-11.224q-4.517-7.5-4.516-18.795a34.684 34.684 0 014.516-17.4 33.154 33.154 0 0113.15-12.751q8.632-4.782 20.853-4.782.663 0 1.727.066t2.524.2V44.043c0-.619.266-.93.8-.93h16.736a.7.7 0 01.8.8v78.5q0 2.26.2 4.915t.332 4.782a1.373 1.373 0 01-.8 1.328 65.884 65.884 0 01-13.415 3.985 72.022 72.022 0 01-12.751 1.2zm8.1-16.47V85.88a13.176 13.176 0 00-2.191-.4 26.488 26.488 0 00-2.723-.133 20.51 20.51 0 00-9.3 2.125 18.154 18.154 0 00-6.973 6.11q-2.724 3.985-2.723 10.493a23.423 23.423 0 001.395 8.5 16.16 16.16 0 003.719 5.844 14.163 14.163 0 005.578 3.321 21.855 21.855 0 006.84 1.063q1.859 0 3.453-.133a14.215 14.215 0 002.927-.526z"/></g></g></g></svg>
